<svg clip-rule="evenodd" fill-rule="evenodd" stroke-linejoin="round" stroke-miterlimit="2" viewBox="0 0 61 35" xml:space="preserve" xmlns="http://www.w3.org/2000/svg"><g transform="translate(-9.922 -16.147) scale(.53755)"><clipPath id="a"><path d="M22.835 64.182h104.79v23.983H22.835z"/></clipPath><g clip-path="url(#a)"><path d="M37.108 87.747c-.109-.183-.071-4.333.084-9.222l.283-8.889 1.111.147c2.354.312 2.603 1.221 2.28 8.297-.034.734.059 2.611.205 4.172.3 3.194-.182 4.558-1.888 5.335-1.269.578-1.803.619-2.075.16zm2.628-2.579c.925-2.215.167-5.977-1.204-5.977-.215 0-.39 1.7-.39 3.778 0 4.115.503 4.81 1.594 2.199zm-.276-8.17c.57-1.065.592-4.91.033-5.794-.709-1.121-1.108-.077-1.281 3.351-.169 3.346.287 4.239 1.248 2.443zm9.173 10.713c-.271-.438.112-16.946.404-17.418.304-.492 3.012.177 3.218.795.128.383-.218.46-1.189.266l-1.369-.274v2.914c0 2.65.088 2.926.966 3.055 1.433.211 1.572 1.254.166 1.254h-1.164l.127 4.333.128 4.333 1.453.14c.799.077 1.337.327 1.196.556-.318.514-3.623.553-3.936.046zm38.663-.005c-.278-.45.1-16.915.399-17.4.31-.502 3.018.154 3.227.782.128.383-.219.46-1.189.266l-1.369-.274v2.914c0 2.65.087 2.926.965 3.055 1.434.211 1.573 1.254.167 1.254h-1.164l.254 8.666 1.453.14c.799.077 1.337.327 1.196.556-.319.517-3.623.552-3.939.041zm12.403-.513c-.637-.704-.837-1.83-.965-5.445a1907.05 1907.05 0 0 0-.303-8.001c-.101-2.436.012-3.444.384-3.444.375 0 .598 2.232.778 7.798.239 7.414.553 9.09 1.699 9.09 1.076 0 1.503-2.409 1.726-9.741.171-5.627.387-7.793.791-7.926.661-.219.716 4.544.14 12.019-.277 3.589-.568 5.016-1.157 5.667-1.007 1.112-2.077 1.106-3.093-.017zm12.473.491c-.284-.459.11-16.889.416-17.385.307-.497 3.015.166 3.223.789.128.383-.219.46-1.189.266l-1.369-.274v2.914c0 2.65.087 2.926.965 3.055 1.434.211 1.572 1.254.167 1.254h-1.164l.254 8.666 1.453.14c.799.077 1.337.327 1.196.556-.327.529-3.627.546-3.952.019zm11.162.07c-.186-.311-.521-16.057-.369-17.34.099-.84 2.051-.666 2.886.257.916 1.012.981 4.535.113 6.212-.556 1.076-.491 1.719.612 6.089.679 2.687 1.143 4.986 1.031 5.108-.52.564-1.428-1.71-2.134-5.346-1.054-5.427-1.765-5.21-1.377.42.187 2.714.138 4.51-.128 4.674-.237.147-.523.114-.634-.074zm1.896-12.007c.584-2.106.586-3.059.008-4.14-.885-1.653-1.318-.84-1.318 2.473 0 3.605.57 4.33 1.31 1.667zM22.87 87.291c-.117-.19.07-1.54.417-3s1.112-5.255 1.701-8.433 1.284-6.328 1.545-7c.466-1.197 1.121-1.567 1.55-.873.31.502 1.092 8.34 1.438 14.429.261 4.59.212 5.222-.405 5.222-.523 0-.738-.538-.839-2.095-.127-1.973-.22-2.112-1.593-2.391-1.653-.336-2.039.091-2.552 2.827-.294 1.569-.787 2.082-1.262 1.314zm5.203-9.1c-.154-2.261-.409-5.011-.565-6.111-.273-1.915-.32-1.802-1.11 2.667-1.453 8.215-1.484 7.556.357 7.556h1.599l-.281-4.112zm31.402.778c0-7.962.063-8.666.778-8.656.557.008 1.075.861 1.824 3l2.521 7.212c.812 2.322 1.579 3.922 1.706 3.555.127-.366.309-3.555.405-7.086.118-4.356.341-6.476.693-6.593.377-.126.502 1.258.46 5.087-.091 8.216-.487 11.894-1.295 12.048-.521.098-1.261-1.566-3.061-6.885-1.305-3.858-2.572-7.215-2.814-7.46-.292-.293-.352 2.08-.178 7 .224 6.359.167 7.445-.388 7.445-.549 0-.651-1.355-.651-8.667zm18.062 8.359c-.156-.157-.284-1.82-.284-3.697s-.13-5.543-.29-8.148l-.29-4.736h-1.265c-.697 0-1.266-.2-1.266-.444 0-.529 3.057-.543 5.555-.026l1.778.368-3.383.102.311 8.157c.291 7.625.109 9.398-.866 8.424zM37.786 49.769c-1.105-1.105-.532-2.443 2.134-4.986 1.466-1.399 2.667-2.579 2.667-2.623s-3.677-.021-8.172.05c-7.042.112-8.272.031-8.889-.587-.912-.912-.91-1.731.008-2.649.629-.629 1.81-.707 8.878-.587l8.153.138-2.656-2.679c-2.819-2.843-3.311-4.273-1.755-5.105.712-.382 1.153-.301 2.111.386 2.257 1.621 8.543 8.396 8.543 9.209 0 .968-8.869 9.967-9.823 9.967-.366 0-.905-.24-1.199-.534zm21.824-4.045c-2.519-2.519-4.579-4.946-4.579-5.393 0-.802 7.483-8.816 9-9.638 1.101-.597 2.555.29 2.555 1.558 0 .677-.909 1.895-2.666 3.571-1.467 1.399-2.667 2.579-2.668 2.623 0 .044 3.674.018 8.164-.058 7.078-.12 8.261-.042 8.889.587.918.918.921 1.737.009 2.649-.618.618-1.848.699-8.89.587-4.494-.071-8.172-.069-8.171.005 0 .074 1.2 1.245 2.667 2.603 2.677 2.479 3.258 3.826 2.133 4.951-1.036 1.036-1.911.487-6.443-4.045zm38.621 4.045c-1.105-1.105-.533-2.443 2.133-4.986 1.467-1.399 2.667-2.579 2.667-2.623.001-.044-3.677-.021-8.172.05-7.041.112-8.271.031-8.889-.587-.912-.912-.909-1.731.008-2.649.629-.629 1.811-.707 8.878-.587l8.153.138-2.656-2.679c-1.619-1.633-2.656-3.058-2.656-3.651 0-1.219 1.477-2.087 2.556-1.502 1.516.822 9 8.836 9 9.638 0 .971-8.866 9.972-9.823 9.972-.366 0-.906-.24-1.199-.534z" fill-rule="nonzero"/></g></g><g transform="translate(-5.429 -12.204) scale(.53755)"><clipPath id="b"><path d="M22.835 30.503h87.636v21.89H22.835z"/></clipPath><g clip-path="url(#b)"><path d="M37.108 87.747c-.109-.183-.071-4.333.084-9.222l.283-8.889 1.111.147c2.354.312 2.603 1.221 2.28 8.297-.034.734.059 2.611.205 4.172.3 3.194-.182 4.558-1.888 5.335-1.269.578-1.803.619-2.075.16zm2.628-2.579c.925-2.215.167-5.977-1.204-5.977-.215 0-.39 1.7-.39 3.778 0 4.115.503 4.81 1.594 2.199zm-.276-8.17c.57-1.065.592-4.91.033-5.794-.709-1.121-1.108-.077-1.281 3.351-.169 3.346.287 4.239 1.248 2.443zm9.173 10.713c-.271-.438.112-16.946.404-17.418.304-.492 3.012.177 3.218.795.128.383-.218.46-1.189.266l-1.369-.274v2.914c0 2.65.088 2.926.966 3.055 1.433.211 1.572 1.254.166 1.254h-1.164l.127 4.333.128 4.333 1.453.14c.799.077 1.337.327 1.196.556-.318.514-3.623.553-3.936.046zm38.663-.005c-.278-.45.1-16.915.399-17.4.31-.502 3.018.154 3.227.782.128.383-.219.46-1.189.266l-1.369-.274v2.914c0 2.65.087 2.926.965 3.055 1.434.211 1.573 1.254.167 1.254h-1.164l.254 8.666 1.453.14c.799.077 1.337.327 1.196.556-.319.517-3.623.552-3.939.041zm12.403-.513c-.637-.704-.837-1.83-.965-5.445a1907.05 1907.05 0 0 0-.303-8.001c-.101-2.436.012-3.444.384-3.444.375 0 .598 2.232.778 7.798.239 7.414.553 9.09 1.699 9.09 1.076 0 1.503-2.409 1.726-9.741.171-5.627.387-7.793.791-7.926.661-.219.716 4.544.14 12.019-.277 3.589-.568 5.016-1.157 5.667-1.007 1.112-2.077 1.106-3.093-.017zm12.473.491c-.284-.459.11-16.889.416-17.385.307-.497 3.015.166 3.223.789.128.383-.219.46-1.189.266l-1.369-.274v2.914c0 2.65.087 2.926.965 3.055 1.434.211 1.572 1.254.167 1.254h-1.164l.254 8.666 1.453.14c.799.077 1.337.327 1.196.556-.327.529-3.627.546-3.952.019zm11.162.07c-.186-.311-.521-16.057-.369-17.34.099-.84 2.051-.666 2.886.257.916 1.012.981 4.535.113 6.212-.556 1.076-.491 1.719.612 6.089.679 2.687 1.143 4.986 1.031 5.108-.52.564-1.428-1.71-2.134-5.346-1.054-5.427-1.765-5.21-1.377.42.187 2.714.138 4.51-.128 4.674-.237.147-.523.114-.634-.074zm1.896-12.007c.584-2.106.586-3.059.008-4.14-.885-1.653-1.318-.84-1.318 2.473 0 3.605.57 4.33 1.31 1.667zM22.87 87.291c-.117-.19.07-1.54.417-3s1.112-5.255 1.701-8.433 1.284-6.328 1.545-7c.466-1.197 1.121-1.567 1.55-.873.31.502 1.092 8.34 1.438 14.429.261 4.59.212 5.222-.405 5.222-.523 0-.738-.538-.839-2.095-.127-1.973-.22-2.112-1.593-2.391-1.653-.336-2.039.091-2.552 2.827-.294 1.569-.787 2.082-1.262 1.314zm5.203-9.1c-.154-2.261-.409-5.011-.565-6.111-.273-1.915-.32-1.802-1.11 2.667-1.453 8.215-1.484 7.556.357 7.556h1.599l-.281-4.112zm31.402.778c0-7.962.063-8.666.778-8.656.557.008 1.075.861 1.824 3l2.521 7.212c.812 2.322 1.579 3.922 1.706 3.555.127-.366.309-3.555.405-7.086.118-4.356.341-6.476.693-6.593.377-.126.502 1.258.46 5.087-.091 8.216-.487 11.894-1.295 12.048-.521.098-1.261-1.566-3.061-6.885-1.305-3.858-2.572-7.215-2.814-7.46-.292-.293-.352 2.08-.178 7 .224 6.359.167 7.445-.388 7.445-.549 0-.651-1.355-.651-8.667zm18.062 8.359c-.156-.157-.284-1.82-.284-3.697s-.13-5.543-.29-8.148l-.29-4.736h-1.265c-.697 0-1.266-.2-1.266-.444 0-.529 3.057-.543 5.555-.026l1.778.368-3.383.102.311 8.157c.291 7.625.109 9.398-.866 8.424zM37.786 49.769c-1.105-1.105-.532-2.443 2.134-4.986 1.466-1.399 2.667-2.579 2.667-2.623s-3.677-.021-8.172.05c-7.042.112-8.272.031-8.889-.587-.912-.912-.91-1.731.008-2.649.629-.629 1.81-.707 8.878-.587l8.153.138-2.656-2.679c-2.819-2.843-3.311-4.273-1.755-5.105.712-.382 1.153-.301 2.111.386 2.257 1.621 8.543 8.396 8.543 9.209 0 .968-8.869 9.967-9.823 9.967-.366 0-.905-.24-1.199-.534zm21.824-4.045c-2.519-2.519-4.579-4.946-4.579-5.393 0-.802 7.483-8.816 9-9.638 1.101-.597 2.555.29 2.555 1.558 0 .677-.909 1.895-2.666 3.571-1.467 1.399-2.667 2.579-2.668 2.623 0 .044 3.674.018 8.164-.058 7.078-.12 8.261-.042 8.889.587.918.918.921 1.737.009 2.649-.618.618-1.848.699-8.89.587-4.494-.071-8.172-.069-8.171.005 0 .074 1.2 1.245 2.667 2.603 2.677 2.479 3.258 3.826 2.133 4.951-1.036 1.036-1.911.487-6.443-4.045zm38.621 4.045c-1.105-1.105-.533-2.443 2.133-4.986 1.467-1.399 2.667-2.579 2.667-2.623.001-.044-3.677-.021-8.172.05-7.041.112-8.271.031-8.889-.587-.912-.912-.909-1.731.008-2.649.629-.629 1.811-.707 8.878-.587l8.153.138-2.656-2.679c-1.619-1.633-2.656-3.058-2.656-3.651 0-1.219 1.477-2.087 2.556-1.502 1.516.822 9 8.836 9 9.638 0 .971-8.866 9.972-9.823 9.972-.366 0-.906-.24-1.199-.534z" fill-rule="nonzero"/></g></g></svg>
